PathFileType	4	(X/Y/Z)	pose_F01_0-83.trc
DataRate	CameraRate	NumFrames	NumMarkers	Units	OrigDataRate	OrigDataStartFrame	OrigNumFrames
30	30	7	21	m	30	31	83
Frame#	Time	CHip			RHip			RKnee			RAnkle			RBigToe			RSmallToe			RHeel			LHip			LKnee			LAnkle			LBigToe			LSmallToe			LHeel			Neck			Nose			RShoulder			RElbow			RWrist			LShoulder			LElbow			LWrist			
		X1	Y1	Z1	X2	Y2	Z2	X3	Y3	Z3	X4	Y4	Z4	X5	Y5	Z5	X6	Y6	Z6	X7	Y7	Z7	X8	Y8	Z8	X9	Y9	Z9	X10	Y10	Z10	X11	Y11	Z11	X12	Y12	Z12	X13	Y13	Z13	X14	Y14	Z14	X15	Y15	Z15	X16	Y16	Z16	X17	Y17	Z17	X18	Y18	Z18	X19	Y19	Z19	X20	Y20	Z20	X21	Y21	Z21	
31	1.0333333333333334	-0.2393024671177664	1.8817342616996828	-0.48004721561530195	-0.24774123082732816	1.87870419504839	-0.41253263507075244	-0.26406758870063823	1.7234711184276574	-0.38118372476550155	-0.2704532035359173	1.5638953868961216	-0.3453475242245918	-0.24264003406262957	1.5235118421121552	-0.3711593469508313	-0.2502441906165257	1.526894576846146	-0.3293747885352748	-0.2811721555941325	1.5580068554335413	-0.34281265981437953	-0.22439232485856175	1.8865736440759406	-0.5575669437414495	-0.2326854460463187	1.7257878235377937	-0.5597397623875685	-0.2532085147228211	1.5810925036779617	-0.5590432501520852	-0.22973608916821134	1.5492830165693017	-0.6072189539929015	-0.23166781983597085	1.5598097535402777	-0.6275466110789313	-0.2614738943990046	1.5757221306147966	-0.5418007350485322	-0.24651563537914697	2.0520306264341936	-0.4877284827661911	-0.2232271813722513	2.1241646465635866	-0.4791679115972023	-0.2645819121151887	2.0487567923801837	-0.3971710234379173	-0.23345819991770017	2.025576589649947	-0.3142909830127028	-0.222601733499932	2.0925903025080514	-0.41111951673349106	-0.22160456565276437	2.0541602112030093	-0.5907861835703678	-0.2216114469982003	1.9692222954408425	-0.6339186967798779	-0.20952051170813793	1.8966888635667076	-0.6741853463594879
32	1.0666666666666667	-0.24056489596739652	1.8777344949567685	-0.47389645209493675	-0.2527750199764414	1.8745836085882897	-0.4018963666472511	-0.26200784580402897	1.7236479718043813	-0.3743995201547273	-0.2728118562987883	1.5640800920534208	-0.3424662725132306	-0.2410812861656981	1.5257130166038295	-0.37303277764524484	-0.24673107326356	1.529091418985773	-0.333355008126687	-0.28448546383392065	1.5571218613403832	-0.34312268831066156	-0.22578286103456016	1.8799852827517567	-0.551117826668343	-0.23302611126080486	1.7259813610433943	-0.5592991457641574	-0.25436288997356743	1.5792534342344144	-0.5616496845697277	-0.22415232387988754	1.5481341789737355	-0.6083233432508217	-0.22925225915556172	1.5588915247319157	-0.6296932554205285	-0.26141859995839234	1.5748920382470735	-0.5418972523302715	-0.25039834567965624	2.0495341600944452	-0.48285184066207204	-0.22303807067339737	2.1262202298632213	-0.47036067371921175	-0.2654958232518734	2.0473064177568667	-0.3911763976923045	-0.23368374719666973	2.030262485945154	-0.3012823224437177	-0.222225182661664	2.095381810924363	-0.402251503248114	-0.22267292192443344	2.0540880475084657	-0.5855339732172684	-0.2227560070128441	1.9676110094458534	-0.6282957245852266	-0.20877169916579544	1.8978060899195244	-0.67137803408107
33	1.1	-0.24136324722989447	1.8788029441627783	-0.46864412961276847	-0.25522814343009675	1.8766391049304236	-0.3945470711553605	-0.26347575515295535	1.7260060876029912	-0.3730808699039556	-0.2725051780178741	1.5646369487228124	-0.34292234498239244	-0.24571769718777328	1.526121443311946	-0.3726336278063581	-0.25157278827726665	1.528142522966563	-0.3323690357428496	-0.28446441488170404	1.5599234381502123	-0.3434334368793692	-0.23092813075443575	1.8822225794407685	-0.5414994854501354	-0.2338615203719996	1.7301293334828702	-0.5547248723061284	-0.25278586005275056	1.5819548588396226	-0.5596580763910238	-0.225734881366241	1.5477638685869062	-0.606620645055649	-0.23004102870777585	1.5595791484941404	-0.6249804122765061	-0.26112718117922773	1.5764460684628019	-0.5423621624452168	-0.24853998773328587	2.0504204571311875	-0.47697134852576073	-0.22872981434609427	2.12839570189787	-0.4559248775925852	-0.26230611572734625	2.0458527283155807	-0.3817694709305039	-0.23458932989976106	2.0386261144631828	-0.29156038814607993	-0.23076940462894596	2.0954723458770093	-0.37364532614461243	-0.2319642759756742	2.0561204935166906	-0.5717978191736479	-0.2261452175319288	1.9702956958946864	-0.6214032298180909	-0.2088285163623009	1.8990111874899773	-0.6715542822019628
34	1.1333333333333333	-0.24352773207623332	1.8789980965549005	-0.46645488692079007	-0.257381526695098	1.8768291172698113	-0.3924316635343325	-0.2637469786338557	1.7245105183691682	-0.3726277117188494	-0.2743874691072729	1.5644901142340104	-0.340863031886609	-0.24577858575985873	1.5262170895442875	-0.372601621536245	-0.25321853729246396	1.5265988267369237	-0.33057613395691005	-0.284308100198772	1.5563690159899555	-0.34312725582018566	-0.23334597943139912	1.8821779490416097	-0.530810897993266	-0.23381519188312544	1.7300801209922	-0.5545602384431721	-0.2536029224525601	1.5807327677999758	-0.562965269299763	-0.22853792123838582	1.5483265933879606	-0.6039335897823327	-0.23033316262005177	1.5606553146173208	-0.6249482434280971	-0.26111119387380755	1.5759433826621603	-0.5426461339252482	-0.24667151221620034	2.050279801524911	-0.4713018665674097	-0.2321107469637958	2.1233299620396373	-0.4490328151910384	-0.26006008190078134	2.047143560214457	-0.3760785524916104	-0.24734133775434275	2.0380060132581836	-0.27733895600557557	-0.23802003137328684	2.09546068089954	-0.3565491718938227	-0.23316915373549946	2.0560226530798023	-0.5671255241617706	-0.2265015998242083	1.9714654557601063	-0.6133351463383282	-0.20900583544376622	1.9002482845726534	-0.6715898319120037
35	1.1666666666666667	-0.2465542363228281	1.8787840395217614	-0.45869444238901064	-0.25821648103154654	1.8766671053413009	-0.38690568336457287	-0.2659935489776667	1.7242886007518774	-0.37007376057242164	-0.2733765719590319	1.5627846759746613	-0.34648080636199174	-0.24389753352881083	1.5240660233808219	-0.37446757246260676	-0.2495254337986263	1.5246288305965299	-0.33453981895548845	-0.2842881470288439	1.5559306235722947	-0.34318783268309766	-0.23445866540812027	1.881932880009932	-0.5252175059480326	-0.23369706447969477	1.7286708808522864	-0.5545318089452541	-0.25572192454566994	1.5836680690221068	-0.561092145850996	-0.228667231782076	1.5486936084251415	-0.6039607739024324	-0.23066841687205109	1.5594703129095768	-0.6243578178539851	-0.2616500647830389	1.5789037025345234	-0.5423664859374041	-0.24750979996166064	2.04889488618476	-0.46538320842471176	-0.23208273269920957	2.1240325849557284	-0.44139038262518365	-0.260164348376961	2.046409188137586	-0.3758339637198081	-0.2530451296687919	2.0416700470246414	-0.26626860898490007	-0.2462752066905818	2.096541589258044	-0.3442434410143252	-0.23325099141303696	2.054357279403062	-0.558326047045954	-0.22942300394988044	1.9735716887631054	-0.6057376950858746	-0.21033605059068608	1.901524759441778	-0.6664848219959841
36	1.2	-0.2514069410204081	1.8783861393521362	-0.4487961928814206	-0.25901017736491383	1.8751150647335644	-0.38108838715756954	-0.26744612351621383	1.7232590628720517	-0.36813921412327	-0.27520331552699506	1.5624139804040647	-0.34437638313143787	-0.2438033375923719	1.5237006678467744	-0.37448716787559844	-0.24785941225866298	1.5260659474848204	-0.33638997247071245	-0.2839709445694549	1.5539076053186462	-0.3433879017708903	-0.23534810993325753	1.8804533585399876	-0.5195021623612426	-0.23294676215977528	1.7298441506336595	-0.5511113567474385	-0.25285146173052875	1.582138418292935	-0.559613504925134	-0.224146097161301	1.5479486704936762	-0.6083361433226413	-0.22814601362609105	1.5582507444476537	-0.6265800814054785	-0.26141414281945685	1.5779475057430399	-0.542344996433792	-0.2484764827062869	2.0492412417585073	-0.4600669174388555	-0.2421400732483513	2.1245292919612293	-0.42475661750641786	-0.2658043335313848	2.045698395473173	-0.3695978865317063	-0.25692698570672856	2.043496705904012	-0.2558843728366818	-0.24736880272289571	2.105051354357661	-0.34210665898058795	-0.23140234086779873	2.053938011817743	-0.5513054852018667	-0.22841825195647242	1.97177855535728	-0.6017885579983948	-0.20932028557704677	1.9013795326850162	-0.6630375636627216
37	1.2333333333333334	-0.2543174630947943	1.8781599353454883	-0.44118252174364253	-0.26849960877073903	1.8746896115856366	-0.37021479391363393	-0.2700427806135849	1.7220679267798826	-0.360415941558181	-0.27350993891701736	1.5640714197736685	-0.34623767385470094	-0.24552273871037616	1.524871681715771	-0.3729640022891689	-0.25335416113566317	1.527026214704724	-0.33064928298328816	-0.28419902974250066	1.5581800884430717	-0.34381763866838333	-0.23642021735368945	1.8814705495753083	-0.5140760297143854	-0.23394284575516036	1.7292891895879632	-0.5457036752845914	-0.2550948234316484	1.5856794835695458	-0.5576688156502675	-0.22308808062311442	1.5476106195689692	-0.6050490736870251	-0.22817875361757592	1.5584013540185737	-0.6264590028149443	-0.2617034638638008	1.5797969853090634	-0.5417527654549256	-0.2530657733025497	2.04955476212697	-0.44966153567748124	-0.24333017680553787	2.121909026135245	-0.4186823385378739	-0.2672805122386224	2.0469236249238385	-0.35883202182312524	-0.25604693996102146	2.0412597830820407	-0.25248508491183935	-0.2560031793439238	2.0926533207317126	-0.3192877779731063	-0.23232894917030908	2.0549756445674543	-0.5457977892715665	-0.22948603969824774	1.9741428643363597	-0.5966932440710879	-0.21063492244557075	1.902549749313289	-0.6579054483545533
